<?xml version="1.0" encoding="UTF-8" standalone="no"?>
<!-- Created with Inkscape (http://www.inkscape.org/) -->

<svg
   xmlns:dc="http://purl.org/dc/elements/1.1/"
   xmlns:cc="http://creativecommons.org/ns#"
   xmlns:rdf="http://www.w3.org/1999/02/22-rdf-syntax-ns#"
   xmlns:svg="http://www.w3.org/2000/svg"
   xmlns="http://www.w3.org/2000/svg"
   xmlns:xlink="http://www.w3.org/1999/xlink"
   xmlns:sodipodi="http://sodipodi.sourceforge.net/DTD/sodipodi-0.dtd"
   xmlns:inkscape="http://www.inkscape.org/namespaces/inkscape"
   width="48.000000px"
   height="48.000000px"
   id="svg2327"
   sodipodi:version="0.32"
   inkscape:version="0.47 r22583"
   sodipodi:docname="kf-desktop.svg"
   inkscape:output_extension="org.inkscape.output.svg.inkscape"
   version="1.1"
   inkscape:export-filename="/Users/cl/work/kf3/tools/icons/kf-icon-theme/32x32/apps/kf-desktop.png"
   inkscape:export-xdpi="60"
   inkscape:export-ydpi="60">
  <sodipodi:namedview
     id="base"
     pagecolor="#ffffff"
     bordercolor="#666666"
     borderopacity="0.12156863"
     inkscape:pageopacity="0.0"
     inkscape:pageshadow="2"
     inkscape:zoom="11.313708"
     inkscape:cx="5.6638453"
     inkscape:cy="14.567462"
     inkscape:current-layer="layer1"
     showgrid="false"
     inkscape:grid-bbox="true"
     inkscape:document-units="px"
     inkscape:window-width="1541"
     inkscape:window-height="1152"
     inkscape:window-x="182"
     inkscape:window-y="32"
     inkscape:showpageshadow="false"
     fill="#fce94f"
     stroke="#edd400"
     inkscape:window-maximized="0" />
  <defs
     id="defs3">
    <inkscape:perspective
       id="perspective98"
       inkscape:persp3d-origin="24 : 16 : 1"
       inkscape:vp_z="48 : 24 : 1"
       inkscape:vp_y="0 : 1000 : 0"
       inkscape:vp_x="0 : 24 : 1"
       sodipodi:type="inkscape:persp3d" />
    <linearGradient
       id="linearGradient2541"
       inkscape:collect="always">
      <stop
         id="stop2543"
         offset="0"
         style="stop-color:#fee964;stop-opacity:1;" />
      <stop
         id="stop2545"
         offset="1"
         style="stop-color:#fee964;stop-opacity:0;" />
    </linearGradient>
    <linearGradient
       id="linearGradient2523"
       inkscape:collect="always">
      <stop
         id="stop2525"
         offset="0"
         style="stop-color:#ffffff;stop-opacity:1;" />
      <stop
         id="stop2527"
         offset="1"
         style="stop-color:#ffffff;stop-opacity:0;" />
    </linearGradient>
    <linearGradient
       id="linearGradient2329">
      <stop
         style="stop-color:#ffffff;stop-opacity:1.0000000;"
         offset="0.0000000"
         id="stop2331" />
      <stop
         style="stop-color:#ffffff;stop-opacity:0.0000000;"
         offset="1.0000000"
         id="stop2333" />
    </linearGradient>
    <linearGradient
       inkscape:collect="always"
       id="linearGradient2321">
      <stop
         style="stop-color:#7b7f7a;stop-opacity:1;"
         offset="0"
         id="stop2323" />
      <stop
         style="stop-color:#7b7f7a;stop-opacity:0;"
         offset="1"
         id="stop2325" />
    </linearGradient>
    <linearGradient
       id="linearGradient2711">
      <stop
         style="stop-color:#909090;stop-opacity:1.0000000;"
         offset="0.0000000"
         id="stop2713" />
      <stop
         style="stop-color:#bebebe;stop-opacity:0.0000000;"
         offset="1.0000000"
         id="stop2715" />
    </linearGradient>
    <linearGradient
       id="linearGradient2701">
      <stop
         style="stop-color:#585956;stop-opacity:1.0000000;"
         offset="0.0000000"
         id="stop2703" />
      <stop
         style="stop-color:#bbbeb8;stop-opacity:1.0000000;"
         offset="1.0000000"
         id="stop2705" />
    </linearGradient>
    <linearGradient
       inkscape:collect="always"
       id="linearGradient2683">
      <stop
         style="stop-color:#000000;stop-opacity:1;"
         offset="0"
         id="stop2685" />
      <stop
         style="stop-color:#000000;stop-opacity:0;"
         offset="1"
         id="stop2687" />
    </linearGradient>
    <linearGradient
       id="linearGradient2675">
      <stop
         style="stop-color:#5b5b97;stop-opacity:1.0000000;"
         offset="0.0000000"
         id="stop2677" />
      <stop
         style="stop-color:#1b1b43;stop-opacity:1.0000000;"
         offset="1.0000000"
         id="stop2679" />
    </linearGradient>
    <linearGradient
       id="linearGradient2667">
      <stop
         style="stop-color:#ffffff;stop-opacity:1.0000000;"
         offset="0.0000000"
         id="stop2669" />
      <stop
         style="stop-color:#fcfcff;stop-opacity:0.0000000;"
         offset="1.0000000"
         id="stop2671" />
    </linearGradient>
    <linearGradient
       id="linearGradient2454"
       inkscape:collect="always">
      <stop
         id="stop2456"
         offset="0"
         style="stop-color:#000000;stop-opacity:1;" />
      <stop
         id="stop2458"
         offset="1"
         style="stop-color:#000000;stop-opacity:0;" />
    </linearGradient>
    <linearGradient
       id="linearGradient2415"
       inkscape:collect="always">
      <stop
         id="stop2417"
         offset="0"
         style="stop-color:#ffffff;stop-opacity:1;" />
      <stop
         id="stop2419"
         offset="1"
         style="stop-color:#ffffff;stop-opacity:0;" />
    </linearGradient>
    <linearGradient
       id="linearGradient2253">
      <stop
         id="stop2255"
         offset="0.0000000"
         style="stop-color:#8f8f8f;stop-opacity:1.0000000;" />
      <stop
         id="stop2257"
         offset="1.0000000"
         style="stop-color:#494949;stop-opacity:1.0000000;" />
    </linearGradient>
    <linearGradient
       id="linearGradient2245">
      <stop
         id="stop2247"
         offset="0.0000000"
         style="stop-color:#dde1d9;stop-opacity:1.0000000;" />
      <stop
         id="stop2249"
         offset="1.0000000"
         style="stop-color:#cacdc6;stop-opacity:1.0000000;" />
    </linearGradient>
    <linearGradient
       gradientUnits="userSpaceOnUse"
       y2="33.339787"
       x2="34.784473"
       y1="7.2293582"
       x1="8.6116238"
       gradientTransform="matrix(1.2421602,0,0,0.97302946,0.64972371,-1.9482156)"
       id="linearGradient2251"
       xlink:href="#linearGradient2245"
       inkscape:collect="always" />
    <linearGradient
       gradientUnits="userSpaceOnUse"
       y2="55.200756"
       x2="34.974548"
       y1="13.004725"
       x1="17.698339"
       gradientTransform="matrix(1.2182,0,0,0.99216764,3.5356226,0.58518808)"
       id="linearGradient2421"
       xlink:href="#linearGradient2415"
       inkscape:collect="always" />
    <radialGradient
       gradientUnits="userSpaceOnUse"
       r="8.7662794"
       fy="67.501709"
       fx="12.575710"
       cy="67.501709"
       cx="12.575710"
       gradientTransform="scale(1.925808,0.519262)"
       id="radialGradient2460"
       xlink:href="#linearGradient2454"
       inkscape:collect="always" />
    <linearGradient
       inkscape:collect="always"
       xlink:href="#linearGradient2683"
       id="linearGradient2689"
       gradientTransform="matrix(6.2721951,0,0,0.19270109,3.5356226,-1.2610979)"
       x1="3.7069976"
       y1="171.29134"
       x2="3.7069974"
       y2="162.45061"
       gradientUnits="userSpaceOnUse" />
    <linearGradient
       inkscape:collect="always"
       xlink:href="#linearGradient2701"
       id="linearGradient2707"
       gradientTransform="matrix(1.9968717,0,0,1.4060397,0.23745256,-47.919992)"
       x1="12.206709"
       y1="53.535141"
       x2="12.127711"
       y2="64.892525"
       gradientUnits="userSpaceOnUse" />
    <linearGradient
       inkscape:collect="always"
       xlink:href="#linearGradient2711"
       id="linearGradient2717"
       x1="34.300991"
       y1="3.9384086"
       x2="35.520542"
       y2="3.8451097"
       gradientUnits="userSpaceOnUse" />
    <linearGradient
       inkscape:collect="always"
       xlink:href="#linearGradient2711"
       id="linearGradient2721"
       gradientUnits="userSpaceOnUse"
       x1="34.300991"
       y1="3.9384086"
       x2="35.520542"
       y2="3.8451097" />
    <linearGradient
       inkscape:collect="always"
       xlink:href="#linearGradient2711"
       id="linearGradient2725"
       gradientUnits="userSpaceOnUse"
       x1="34.300991"
       y1="3.9384086"
       x2="35.520542"
       y2="3.8451097" />
    <linearGradient
       inkscape:collect="always"
       xlink:href="#linearGradient2711"
       id="linearGradient2729"
       gradientUnits="userSpaceOnUse"
       x1="34.300991"
       y1="3.9384086"
       x2="35.520542"
       y2="3.8451097" />
    <linearGradient
       inkscape:collect="always"
       xlink:href="#linearGradient2711"
       id="linearGradient2733"
       gradientUnits="userSpaceOnUse"
       x1="34.300991"
       y1="3.9384086"
       x2="35.520542"
       y2="3.8451097" />
    <linearGradient
       inkscape:collect="always"
       xlink:href="#linearGradient2253"
       id="linearGradient1561"
       gradientUnits="userSpaceOnUse"
       gradientTransform="matrix(1.214163,0,0,0.99546581,2.4362326,-0.51420202)"
       x1="10.390738"
       y1="5.3817744"
       x2="32.536823"
       y2="31.246054" />
    <linearGradient
       inkscape:collect="always"
       xlink:href="#linearGradient2321"
       id="linearGradient2327"
       x1="-35.658386"
       y1="33.416473"
       x2="-35.658386"
       y2="28.205938"
       gradientUnits="userSpaceOnUse" />
    <linearGradient
       inkscape:collect="always"
       xlink:href="#linearGradient2329"
       id="linearGradient2337"
       x1="-35.122688"
       y1="34.242237"
       x2="-35.074745"
       y2="30.962345"
       gradientUnits="userSpaceOnUse" />
    <linearGradient
       y2="26.729263"
       x2="17.199417"
       y1="1.6537577"
       x1="11.492236"
       gradientTransform="matrix(1.3621191,0,0,0.98500409,3.279829,-1.9780662)"
       gradientUnits="userSpaceOnUse"
       id="linearGradient2315"
       xlink:href="#linearGradient2667"
       inkscape:collect="always" />
    <inkscape:perspective
       sodipodi:type="inkscape:persp3d"
       inkscape:vp_x="0 : 0.5 : 1"
       inkscape:vp_y="0 : 1000 : 0"
       inkscape:vp_z="1 : 0.5 : 1"
       inkscape:persp3d-origin="0.5 : 0.33333333 : 1"
       id="perspective5682" />
    <inkscape:perspective
       sodipodi:type="inkscape:persp3d"
       inkscape:vp_x="0 : 0.5 : 1"
       inkscape:vp_y="0 : 1000 : 0"
       inkscape:vp_z="1 : 0.5 : 1"
       inkscape:persp3d-origin="0.5 : 0.33333333 : 1"
       id="perspective5759" />
    <radialGradient
       inkscape:collect="always"
       xlink:href="#linearGradient2541"
       id="radialGradient53512"
       gradientUnits="userSpaceOnUse"
       cx="16.086679"
       cy="13.970486"
       fx="16.086679"
       fy="13.970486"
       r="1.767767" />
    <radialGradient
       inkscape:collect="always"
       xlink:href="#linearGradient2523"
       id="radialGradient53514"
       gradientUnits="userSpaceOnUse"
       gradientTransform="matrix(1.952381,0,0,1.952381,-12.96362,-11.03238)"
       cx="13.611806"
       cy="11.584001"
       fx="13.611806"
       fy="11.584001"
       r="1.8561553" />
    <linearGradient
       inkscape:collect="always"
       xlink:href="#linearGradient2667"
       id="linearGradient53516"
       gradientUnits="userSpaceOnUse"
       gradientTransform="matrix(1.3621191,0,0,0.98500409,3.3770018,-2.0752392)"
       x1="11.492236"
       y1="1.6537577"
       x2="17.199417"
       y2="26.729263" />
  </defs>
  <metadata
     id="metadata4">
    <rdf:RDF>
      <cc:Work
         rdf:about="">
        <dc:format>image/svg+xml</dc:format>
        <dc:type
           rdf:resource="http://purl.org/dc/dcmitype/StillImage" />
        <dc:title></dc:title>
        <dc:date />
        <dc:creator>
          <cc:Agent>
            <dc:title>Jakub Steiner</dc:title>
          </cc:Agent>
        </dc:creator>
        <dc:subject>
          <rdf:Bag>
            <rdf:li>video</rdf:li>
            <rdf:li>display</rdf:li>
            <rdf:li>screensaver</rdf:li>
            <rdf:li>saver</rdf:li>
          </rdf:Bag>
        </dc:subject>
        <cc:license
           rdf:resource="http://creativecommons.org/licenses/publicdomain/" />
        <dc:source>http://jimmac.musichall.cz/</dc:source>
      </cc:Work>
      <cc:License
         rdf:about="http://creativecommons.org/licenses/publicdomain/">
        <cc:permits
           rdf:resource="http://creativecommons.org/ns#Reproduction" />
        <cc:permits
           rdf:resource="http://creativecommons.org/ns#Distribution" />
        <cc:permits
           rdf:resource="http://creativecommons.org/ns#DerivativeWorks" />
      </cc:License>
    </rdf:RDF>
  </metadata>
  <g
     inkscape:groupmode="layer"
     inkscape:label="Layer 1"
     id="layer1">
    <path
       transform="matrix(1.1546356,0,0,2.0535376,-3.5505598,-34.574528)"
       d="m 41.10058,35.051105 a 16.882174,4.552 0 1 1 -33.7643469,0 16.882174,4.552 0 1 1 33.7643469,0 z"
       sodipodi:ry="4.552"
       sodipodi:rx="16.882174"
       sodipodi:cy="35.051105"
       sodipodi:cx="24.218407"
       id="path2452"
       style="opacity:0.50857143;color:#000000;fill:url(#radialGradient2460);fill-opacity:1;fill-rule:evenodd;stroke:none;stroke-width:1;marker:none;visibility:visible;display:inline;overflow:visible"
       sodipodi:type="arc" />
    <path
       transform="matrix(1.0993901,0,0,1.0993901,63.489094,5.2063977)"
       d="m -26.263968,29.716238 a 9.3944187,3.939595 0 1 1 -18.788837,0 9.3944187,3.939595 0 1 1 18.788837,0 z"
       sodipodi:ry="3.939595"
       sodipodi:rx="9.3944187"
       sodipodi:cy="29.716238"
       sodipodi:cx="-35.658386"
       id="path2407"
       style="color:#000000;fill:#adb0aa;fill-opacity:1;fill-rule:evenodd;stroke:#4b4d4a;stroke-width:1;stroke-linecap:butt;stroke-linejoin:miter;stroke-miterlimit:4;stroke-opacity:1;stroke-dashoffset:0;marker:none;visibility:visible;display:inline;overflow:visible"
       sodipodi:type="arc" />
    <path
       sodipodi:type="arc"
       style="color:#000000;fill:none;stroke:url(#linearGradient2327);stroke-width:1.15713382;stroke-linecap:butt;stroke-linejoin:miter;stroke-miterlimit:4;stroke-opacity:1;stroke-dasharray:none;stroke-dashoffset:0;marker:none;visibility:visible;display:inline;overflow:visible"
       id="path1825"
       sodipodi:cx="-35.658386"
       sodipodi:cy="29.716238"
       sodipodi:rx="9.3944187"
       sodipodi:ry="3.939595"
       d="m -26.263968,29.716238 a 9.3944187,3.939595 0 1 1 -18.788837,0 9.3944187,3.939595 0 1 1 18.788837,0 z"
       transform="matrix(0.99205997,0,0,0.90991025,59.661853,10.471915)" />
    <path
       transform="matrix(0.92079201,0,0,0.93740049,57.051857,8.4251042)"
       d="m -26.263968,29.716238 a 9.3944187,3.939595 0 1 1 -18.788837,0 9.3944187,3.939595 0 1 1 18.788837,0 z"
       sodipodi:ry="3.939595"
       sodipodi:rx="9.3944187"
       sodipodi:cy="29.716238"
       sodipodi:cx="-35.658386"
       id="path2983"
       style="color:#000000;fill:none;stroke:url(#linearGradient2337);stroke-width:1.18333709;stroke-linecap:butt;stroke-linejoin:miter;stroke-miterlimit:4;stroke-opacity:1;stroke-dasharray:none;stroke-dashoffset:0;marker:none;visibility:visible;display:inline;overflow:visible"
       sodipodi:type="arc" />
    <rect
       style="color:#000000;fill:url(#linearGradient2707);fill-opacity:1;fill-rule:evenodd;stroke:none;stroke-width:0.60872948;marker:none;visibility:visible;display:inline;overflow:visible"
       id="rect2699"
       width="9.9381275"
       height="6.9976606"
       x="19.446434"
       y="30.492573" />
    <path
       sodipodi:nodetypes="cssssssss"
       id="rect2404"
       d="m 5.8233465,1.3499483 36.9265295,0 c 1.001921,0 1.785572,0.6414742 1.832411,1.540891 l 1.464436,28.1203247 c 0.064,1.228827 -0.990612,2.221104 -2.221103,2.221104 l -39.0780161,0 c -1.2304914,0 -2.2850978,-0.992277 -2.2211036,-2.221104 L 3.9909361,2.8908393 c 0.044287,-0.8504164 0.6019191,-1.540891 1.8324104,-1.540891 z"
       style="color:#000000;fill:url(#linearGradient2251);fill-opacity:1;fill-rule:evenodd;stroke:url(#linearGradient1561);stroke-width:1.09939015;stroke-linecap:butt;stroke-linejoin:miter;stroke-miterlimit:4;stroke-opacity:1;stroke-dashoffset:0;marker:none;visibility:visible;display:inline;overflow:visible" />
    <path
       style="fill:#000000;fill-opacity:1;fill-rule:evenodd;stroke:#1a1a1a;stroke-width:0.54969507;stroke-linecap:butt;stroke-linejoin:round;stroke-miterlimit:4;stroke-opacity:1;stroke-dasharray:none"
       d="m 7.3823055,4.5111014 -1.3656591,24.2364026 34.7961266,0 L 39.345068,4.6138163 7.3823055,4.5111003 z"
       id="path2377"
       sodipodi:nodetypes="ccccc" />
    <path
       id="path2393"
       d="m 4.8300813,31.077641 38.9497177,0"
       style="fill:none;stroke:url(#linearGradient2689);stroke-width:1.09519172;stroke-linecap:round;stroke-linejoin:miter;stroke-miterlimit:4;stroke-opacity:0.24840764"
       sodipodi:nodetypes="cc" />
    <path
       style="color:#000000;fill:none;stroke:url(#linearGradient2421);stroke-width:1.09938979;stroke-linecap:butt;stroke-linejoin:miter;stroke-miterlimit:4;stroke-opacity:0.70063692;stroke-dashoffset:0;marker:none;visibility:visible;display:inline;overflow:visible"
       d="M 5.6405135,2.4611212 42.849926,2.4195627 c 0.311893,-3.483e-4 0.614891,0.2608301 0.63996,0.7174002 l 1.49725,27.2684451 c 0.06381,1.16209 -0.593394,1.96337 -1.757233,1.96337 l -37.9553105,0 c -1.1638395,0 -1.7513444,-0.801226 -1.6885219,-1.96337 L 5.0417625,3.4767635 c 0.042542,-0.7869769 0.1829224,-1.015178 0.598751,-1.0156423 z"
       id="path2397"
       sodipodi:nodetypes="cssssssss" />
    <g
       id="g53298"
       transform="matrix(0.99337369,0,0,0.99337369,1.5236358,-38.199011)">
      <path
         id="path64-9"
         style="fill:#ffffff;fill-opacity:1;fill-rule:nonzero;stroke:none"
         d="M 32.68729,53.708863 C 32.524865,53.06981 32.282351,52.459146 31.966499,51.913977 31.273914,50.720254 30.391954,49.70397 29.52517,48.738328 28.957159,48.105623 28.382874,47.495695 27.752303,46.97141 c -0.522023,-0.434348 -1.070451,-0.817336 -1.63883,-1.142067 -1.007811,-0.575524 -2.072733,-0.922029 -3.16043,-1.14514 -0.214069,-0.04429 -0.429323,-0.08485 -0.645109,-0.111582 -0.08517,-0.01041 -0.170526,-0.01193 -0.254644,-0.02544 -0.03554,-0.0059 -0.153931,-0.03609 -0.06002,-0.06802 0.150355,-0.0512 0.318687,-0.04004 0.474606,-0.03476 0.21118,0.0066 0.422806,0.01888 0.634036,0.03371 0.461171,0.03245 0.926439,0.07024 1.382267,0.174436 0.307083,0.07029 0.612732,0.147863 0.916818,0.236309 1.13035,0.329141 2.241225,0.782298 3.338078,1.282777 1.037336,0.473528 2.055982,1.022144 3.020353,1.723691 1.186098,0.862267 2.298569,1.922466 3.341497,3.072705 0.483099,0.533048 0.947864,1.105918 1.350549,1.742228 0.247467,0.391717 0.460483,0.819823 0.640249,1.266214 0.168837,0.419059 0.192571,0.809326 0.204547,1.006246 0.01198,0.197028 0.03761,0.618398 -0.08112,1.042081 -0.127215,0.454774 -0.291305,0.893388 -0.495917,1.297304 -0.335776,0.661653 -0.746093,1.262126 -1.183499,1.826175 -0.95715,1.233172 -2.014053,2.389643 -3.184806,3.344154 -0.964088,0.786197 -2.00854,1.406529 -3.087347,1.945894 -1.149946,0.574464 -2.326776,1.098695 -3.538007,1.48057 -0.326979,0.103177 -0.656466,0.193277 -0.988133,0.274858 -0.493033,0.12164 -0.998418,0.164798 -1.499738,0.201056 -0.229708,0.01676 -0.45993,0.03041 -0.689756,0.03795 -0.169705,0.0054 -0.352897,0.01804 -0.516801,-0.04321 -0.102295,-0.03816 0.0264,-0.07357 0.06502,-0.08027 0.09142,-0.01577 0.184241,-0.01696 0.276797,-0.02912 0.234421,-0.03078 0.468011,-0.0781 0.700111,-0.129375 1.17671,-0.258528 2.320448,-0.661233 3.386691,-1.327156 0.596851,-0.372734 1.166222,-0.810465 1.701054,-1.303725 0.640981,-0.591168 1.211532,-1.272691 1.768289,-1.972848 0.838671,-1.054838 1.676033,-2.147737 2.290642,-3.409976 0.276377,-0.56876 0.470195,-1.200044 0.578736,-1.854939 0.07034,-0.425481 0.109662,-0.92839 0.09309,-1.306813 -0.01651,-0.377127 -0.09805,-0.847532 -0.204286,-1.26648" />
      <path
         id="path68-8"
         style="fill:#ffffff;fill-opacity:1;fill-rule:nonzero;stroke:none"
         d="m 26.039673,53.764708 c -0.131977,-0.605844 -0.336207,-1.184488 -0.608725,-1.701534 -0.59682,-1.132272 -1.36843,-2.097039 -2.12791,-3.013802 -0.497863,-0.600723 -1.001695,-1.180161 -1.558292,-1.678211 -0.460775,-0.412668 -0.946749,-0.776579 -1.452205,-1.085123 -0.895784,-0.547188 -1.848214,-0.876562 -2.823967,-1.088582 -0.192212,-0.04176 -0.385486,-0.08029 -0.579586,-0.105825 -0.076,-0.0099 -0.152997,-0.01123 -0.228712,-0.02404 -0.03196,-0.0057 -0.13774,-0.03443 -0.05315,-0.06477 0.137225,-0.04868 0.288676,-0.03805 0.429056,-0.03318 0.190339,0.0065 0.380588,0.0181 0.570806,0.03202 0.415016,0.03066 0.833811,0.06649 1.242067,0.165687 0.275272,0.06659 0.549131,0.139981 0.821567,0.224295 1.011568,0.312988 2.002989,0.7437 2.98034,1.219105 0.924306,0.449985 1.82974,0.971405 2.683307,1.637401 1.048948,0.819133 2.027301,1.825378 2.940507,2.917322 0.422734,0.505677 0.828243,1.048604 1.175696,1.652395 0.213698,0.37139 0.395812,0.776836 0.547039,1.200263 0.142068,0.396863 0.154362,0.766899 0.160554,0.953276 0.0062,0.186838 0.01946,0.585828 -0.09706,0.987205 -0.124773,0.430588 -0.28285,0.845822 -0.476223,1.22816 -0.316834,0.626178 -0.699846,1.194404 -1.105981,1.727718 -0.888627,1.166186 -1.864788,2.258783 -2.937637,3.160514 -0.883642,0.742263 -1.834839,1.327827 -2.815092,1.836656 -1.044442,0.542107 -2.111939,1.036568 -3.206857,1.396649 -0.295857,0.09716 -0.593429,0.182108 -0.892727,0.25919 -0.444507,0.11447 -0.899132,0.154905 -1.349749,0.189529 -0.206607,0.0157 -0.413198,0.02837 -0.61972,0.03544 -0.152327,0.0052 -0.316922,0.0171 -0.463454,-0.04077 -0.09025,-0.03593 0.0256,-0.06932 0.06046,-0.07557 0.08255,-0.01505 0.165975,-0.01635 0.248665,-0.02753 0.211158,-0.02898 0.421845,-0.0736 0.631363,-0.121732 1.061375,-0.243739 2.096178,-0.623542 3.066977,-1.251606 0.543918,-0.351559 1.064435,-0.764766 1.554985,-1.230448 0.588159,-0.557855 1.11508,-1.201707 1.630488,-1.862926 0.776656,-0.996984 1.553195,-2.029932 2.133567,-3.223675 0.261565,-0.538038 0.44958,-1.135547 0.561984,-1.755243 0.0731,-0.403231 0.119222,-0.879656 0.112803,-1.2382 -0.0064,-0.357168 -0.06868,-0.803056 -0.155186,-1.200059" />
      <path
         id="path72-2"
         style="fill:#ffffff;fill-opacity:1;fill-rule:nonzero;stroke:none"
         d="m 20.065124,53.910253 c -0.113036,-0.528614 -0.295975,-1.03421 -0.545682,-1.48594 -0.546756,-0.99011 -1.265507,-1.834512 -1.974437,-2.63804 -0.464258,-0.526633 -0.935758,-1.034868 -1.459517,-1.472231 -0.433893,-0.362272 -0.892818,-0.682008 -1.371769,-0.952978 -0.849222,-0.48111 -1.75738,-0.770942 -2.689904,-0.957835 -0.183853,-0.03655 -0.368619,-0.0704 -0.554441,-0.0929 -0.07293,-0.0088 -0.146807,-0.01003 -0.21941,-0.02134 -0.03039,-0.0049 -0.131704,-0.03043 -0.04968,-0.057 0.132362,-0.04277 0.277633,-0.03336 0.412081,-0.02918 0.182796,0.0056 0.365202,0.01582 0.547748,0.02805 0.397921,0.02726 0.798703,0.05883 1.18943,0.145998 0.262926,0.05874 0.524283,0.123461 0.7842,0.197562 0.965007,0.27509 1.907858,0.654034 2.835964,1.071941 0.87727,0.395335 1.734989,0.853192 2.53891,1.437699 0.987653,0.71844 1.902367,1.600069 2.752058,2.555637 0.392775,0.442138 0.767954,0.917042 1.08638,1.444315 0.195946,0.324418 0.360368,0.678528 0.495249,1.047675 0.126071,0.346236 0.129073,0.668599 0.130586,0.831141 0.0015,0.162745 0.0048,0.510275 -0.115647,0.859709 -0.12956,0.374831 -0.289997,0.736118 -0.483756,1.068524 -0.316978,0.544194 -0.695137,1.037715 -1.094395,1.50056 -0.873359,1.011479 -1.827254,1.958216 -2.868429,2.738456 -0.856451,0.641869 -1.773898,1.147944 -2.716443,1.587251 -1.003798,0.467699 -2.028011,0.894195 -3.075507,1.20464 -0.282945,0.08382 -0.567115,0.156961 -0.852832,0.223333 -0.425097,0.0986 -0.857135,0.133395 -1.285959,0.163032 -0.196766,0.0134 -0.393238,0.02428 -0.589767,0.03022 -0.144563,0.0045 -0.301225,0.01483 -0.439241,-0.03488 -0.08548,-0.03084 0.02548,-0.05995 0.05849,-0.06532 0.07884,-0.01278 0.158103,-0.01372 0.237043,-0.02369 0.201073,-0.02493 0.401937,-0.06329 0.601939,-0.104738 1.012651,-0.210067 2.003195,-0.537397 2.937774,-1.079202 0.523844,-0.303801 1.026674,-0.660455 1.502497,-1.062629 0.570649,-0.482186 1.085263,-1.038955 1.588749,-1.611367 0.760633,-0.863785 1.522524,-1.759532 2.101031,-2.795925 0.26121,-0.467687 0.453639,-0.987142 0.574327,-1.526335 0.07853,-0.350865 0.133044,-0.765617 0.134707,-1.077988 0.0017,-0.311428 -0.0483,-0.699894 -0.122346,-1.046229" />
      <path
         id="path76-8"
         style="fill:#ffffff;fill-opacity:1;fill-rule:nonzero;stroke:none"
         d="M 14.804473,54.109661 C 14.71775,53.684453 14.571534,53.277811 14.367976,52.914001 13.921728,52.115835 13.327123,51.433974 12.74017,50.784889 12.354672,50.358894 11.963252,49.947033 11.525848,49.59285 11.163455,49.299123 10.778951,49.039643 10.376943,48.81954 9.6634284,48.429141 8.8971363,48.193511 8.1087795,48.041977 c -0.1553483,-0.02963 -0.311622,-0.05742 -0.4690379,-0.07573 -0.061691,-0.007 -0.1241507,-0.0081 -0.1855,-0.01729 -0.025902,-0.0038 -0.1112208,-0.02439 -0.041504,-0.04626 0.112818,-0.03471 0.2356632,-0.02727 0.3495279,-0.02367 0.1551178,0.0046 0.3095872,0.01299 0.4639844,0.02296 0.3371656,0.02189 0.676719,0.04778 1.0066207,0.118563 0.2222139,0.04751 0.4431771,0.100322 0.6625948,0.160468 0.8143916,0.223432 1.6082366,0.531137 2.3885206,0.87037 0.737505,0.320408 1.456453,0.691412 2.127731,1.165125 0.824082,0.581175 1.583122,1.293948 2.283774,2.064887 0.32435,0.356664 0.632394,0.739464 0.891648,1.163782 0.159227,0.260933 0.291131,0.546013 0.398014,0.84258 0.09993,0.278235 0.09644,0.537085 0.09469,0.667474 -0.0018,0.130712 -0.0055,0.40933 -0.113516,0.689736 -0.116,0.300012 -0.257452,0.589419 -0.426438,0.85549 -0.276601,0.435192 -0.603222,0.829472 -0.947448,1.19921 -0.750267,0.806744 -1.567067,1.560489 -2.452947,2.18108 -0.727744,0.509767 -1.503496,0.91119 -2.299368,1.259589 -0.846544,0.370626 -1.709089,0.708054 -2.5891785,0.953411 -0.2376677,0.06639 -0.476425,0.124475 -0.7161435,0.176683 -0.3562561,0.07784 -0.7180738,0.105354 -1.0770743,0.128806 -0.164416,0.01046 -0.3287646,0.01919 -0.4933668,0.02399 -0.1208343,0.0031 -0.25168,0.01121 -0.3667414,-0.02817 -0.071057,-0.02452 0.02167,-0.04711 0.049518,-0.05136 0.065978,-0.01035 0.1321082,-0.01111 0.1981647,-0.01884 0.1685261,-0.01967 0.3369239,-0.04994 0.5044942,-0.08265 0.8492242,-0.16601 1.6816987,-0.424803 2.4703272,-0.853956 0.4421374,-0.240445 0.8678624,-0.523166 1.2716494,-0.842465 0.484801,-0.382972 0.923553,-0.825367 1.35436,-1.280763 0.650364,-0.687559 1.303887,-1.401524 1.806266,-2.229507 0.227057,-0.373788 0.397223,-0.789545 0.507382,-1.221297 0.07162,-0.281167 0.124199,-0.613648 0.130667,-0.86433 0.0065,-0.250005 -0.02931,-0.561909 -0.08597,-0.84021" />
    </g>
    <path
       id="path2443"
       d="M 7.8103952,4.7039028 6.9281027,24.350366 C 19.070469,21.711137 23.882307,12.815347 38.979757,9.89696 L 38.802237,4.7765329 7.8103952,4.7039028 z"
       style="opacity:0.53142856;fill:url(#linearGradient2315);fill-opacity:1;fill-rule:evenodd;stroke:none"
       sodipodi:nodetypes="ccccc" />
    <path
       sodipodi:type="arc"
       style="color:#000000;fill:url(#linearGradient2717);fill-opacity:1;fill-rule:evenodd;stroke:none;stroke-width:0.5;marker:none;visibility:visible;display:inline;overflow:visible"
       id="path2709"
       sodipodi:cx="34.780815"
       sodipodi:cy="3.9384086"
       sodipodi:rx="0.83968931"
       sodipodi:ry="0.83968931"
       d="m 35.620504,3.9384086 a 0.83968931,0.83968931 0 1 1 -1.679378,0 0.83968931,0.83968931 0 1 1 1.679378,0 z"
       transform="matrix(1.4635488,0,0,0.72389234,-9.0186757,2.6233103)" />
    <path
       transform="matrix(1.4635488,0,0,0.72389234,-8.893785,4.9383884)"
       d="m 35.620504,3.9384086 a 0.83968931,0.83968931 0 1 1 -1.679378,0 0.83968931,0.83968931 0 1 1 1.679378,0 z"
       sodipodi:ry="0.83968931"
       sodipodi:rx="0.83968931"
       sodipodi:cy="3.9384086"
       sodipodi:cx="34.780815"
       id="path2719"
       style="color:#000000;fill:url(#linearGradient2721);fill-opacity:1;fill-rule:evenodd;stroke:none;stroke-width:0.5;marker:none;visibility:visible;display:inline;overflow:visible"
       sodipodi:type="arc" />
    <path
       sodipodi:type="arc"
       style="color:#000000;fill:url(#linearGradient2725);fill-opacity:1;fill-rule:evenodd;stroke:none;stroke-width:0.5;marker:none;visibility:visible;display:inline;overflow:visible"
       id="path2723"
       sodipodi:cx="34.780815"
       sodipodi:cy="3.9384086"
       sodipodi:rx="0.83968931"
       sodipodi:ry="0.83968931"
       d="m 35.620504,3.9384086 a 0.83968931,0.83968931 0 1 1 -1.679378,0 0.83968931,0.83968931 0 1 1 1.679378,0 z"
       transform="matrix(1.4635488,0,0,0.72389234,-8.7688942,7.1371687)" />
    <path
       transform="matrix(1.4635488,0,0,0.72389234,-8.6440036,9.3359489)"
       d="m 35.620504,3.9384086 a 0.83968931,0.83968931 0 1 1 -1.679378,0 0.83968931,0.83968931 0 1 1 1.679378,0 z"
       sodipodi:ry="0.83968931"
       sodipodi:rx="0.83968931"
       sodipodi:cy="3.9384086"
       sodipodi:cx="34.780815"
       id="path2727"
       style="color:#000000;fill:url(#linearGradient2729);fill-opacity:1;fill-rule:evenodd;stroke:none;stroke-width:0.5;marker:none;visibility:visible;display:inline;overflow:visible"
       sodipodi:type="arc" />
    <path
       sodipodi:type="arc"
       style="color:#000000;fill:url(#linearGradient2733);fill-opacity:1;fill-rule:evenodd;stroke:none;stroke-width:0.5;marker:none;visibility:visible;display:inline;overflow:visible"
       id="path2731"
       sodipodi:cx="34.780815"
       sodipodi:cy="3.9384086"
       sodipodi:rx="0.83968931"
       sodipodi:ry="0.83968931"
       d="m 35.620504,3.9384086 a 0.83968931,0.83968931 0 1 1 -1.679378,0 0.83968931,0.83968931 0 1 1 1.679378,0 z"
       transform="matrix(1.4635488,0,0,0.72389234,-8.5191128,11.534729)" />
    <path
       style="font-size:0.9029026px;font-style:normal;font-variant:normal;font-weight:bold;font-stretch:normal;writing-mode:lr-tb;text-anchor:start;fill:#4a4a4a;fill-opacity:1;stroke:none;font-family:Bitstream Vera Sans"
       d="m 22.225256,29.51857 0.309716,0 c 0.09208,1e-6 0.162693,0.02051 0.211807,0.06155 0.04944,0.04071 0.07416,0.09888 0.07416,0.174488 -10e-7,0.07593 -0.02472,0.13442 -0.07416,0.175457 -0.04911,0.04071 -0.119717,0.06107 -0.211807,0.06107 l -0.123111,0 0,0.251067 -0.186605,0 0,-0.723639 m 0.186605,0.135228 0,0.202116 0.103238,0 c 0.03618,0 0.06414,-0.0087 0.08385,-0.02617 0.01971,-0.01777 0.02956,-0.04282 0.02956,-0.07512 0,-0.03232 -0.0098,-0.05719 -0.02956,-0.07464 -0.01972,-0.01745 -0.04766,-0.02617 -0.08385,-0.02617 l -0.103238,0 m 0.870985,-0.01309 c -0.05687,1e-6 -0.100981,0.021 -0.13232,0.06302 -0.03134,0.04201 -0.04702,0.101134 -0.04702,0.177396 0,0.07593 0.01567,0.134905 0.04702,0.176912 0.03134,0.04201 0.07545,0.063 0.13232,0.063 0.05719,0 0.101462,-0.02101 0.132805,-0.063 0.03134,-0.04201 0.04702,-0.100981 0.04702,-0.176912 -1e-6,-0.07626 -0.01567,-0.135389 -0.04702,-0.177396 -0.03134,-0.04201 -0.07561,-0.06301 -0.132805,-0.06302 m 0,-0.135228 c 0.116324,1e-6 0.207446,0.03329 0.273364,0.09984 0.06592,0.06657 0.09887,0.158494 0.09888,0.275788 -1e-6,0.116971 -0.03296,0.208738 -0.09888,0.275303 -0.06592,0.06657 -0.15704,0.09984 -0.273364,0.09984 -0.116003,0 -0.207124,-0.03328 -0.273365,-0.09984 -0.06592,-0.06657 -0.09887,-0.158332 -0.09887,-0.275303 0,-0.117294 0.03296,-0.209224 0.09887,-0.275788 0.06624,-0.06657 0.157362,-0.09984 0.273365,-0.09984 m 0.5128,0.01308 0.208416,0 0.263186,0.496321 0,-0.496321 0.176913,0 0,0.723639 -0.208418,0 -0.263185,-0.49632 0,0.49632 -0.176912,0 0,-0.723639 m 0.728972,0 0.204054,0 0.164793,0.257854 0.164794,-0.257854 0.20454,0 -0.275788,0.418771 0,0.304868 -0.186606,0 0,-0.304868 -0.275787,-0.418771"
       id="text2735" />
    <path
       sodipodi:nodetypes="ccccc"
       style="opacity:0.53142856;fill:url(#linearGradient53516);fill-opacity:1;fill-rule:evenodd;stroke:none"
       d="M 7.9075688,4.6067298 7.0252764,24.253193 C 19.167644,21.613964 23.979481,12.718174 39.076931,9.7997871 L 38.899411,4.6793599 7.9075688,4.6067298 z"
       id="path52836" />
  </g>
</svg>
